<mxfile host="app.diagrams.net" modified="2021-10-26T06:25:34.353Z" agent="5.0 (Macintosh; Intel Mac OS X 10_15_7) AppleWebKit/537.36 (KHTML, like Gecko) Chrome/94.0.4606.71 Safari/537.36" etag="UtwavZL88t-HdWwKB0Hd" version="15.4.1" type="github">
  <diagram id="MPKd_8gNqW9lTe_JWmjq" name="Page-1">
    <mxGraphModel dx="718" dy="480" grid="1" gridSize="10" guides="1" tooltips="1" connect="1" arrows="1" fold="1" page="1" pageScale="1" pageWidth="827" pageHeight="1169" math="0" shadow="0">
      <root>
        <mxCell id="0" />
        <mxCell id="1" parent="0" />
        <mxCell id="KTwC12vmh-3-CP3L2IJ9-2" value="sa : swap a" style="text;html=1;strokeColor=none;fillColor=none;align=center;verticalAlign=middle;whiteSpace=wrap;rounded=0;" vertex="1" parent="1">
          <mxGeometry x="40" y="40" width="70" height="30" as="geometry" />
        </mxCell>
        <mxCell id="KTwC12vmh-3-CP3L2IJ9-7" value="" style="shape=table;html=1;whiteSpace=wrap;startSize=0;container=1;collapsible=0;childLayout=tableLayout;" vertex="1" parent="1">
          <mxGeometry x="130" width="180" height="40" as="geometry" />
        </mxCell>
        <mxCell id="KTwC12vmh-3-CP3L2IJ9-12" value="" style="shape=partialRectangle;html=1;whiteSpace=wrap;collapsible=0;dropTarget=0;pointerEvents=0;fillColor=none;top=0;left=0;bottom=0;right=0;points=[[0,0.5],[1,0.5]];portConstraint=eastwest;" vertex="1" parent="KTwC12vmh-3-CP3L2IJ9-7">
          <mxGeometry width="180" height="40" as="geometry" />
        </mxCell>
        <mxCell id="KTwC12vmh-3-CP3L2IJ9-13" value="87" style="shape=partialRectangle;html=1;whiteSpace=wrap;connectable=0;fillColor=none;top=0;left=0;bottom=0;right=0;overflow=hidden;pointerEvents=1;" vertex="1" parent="KTwC12vmh-3-CP3L2IJ9-12">
          <mxGeometry width="60" height="40" as="geometry">
            <mxRectangle width="60" height="40" as="alternateBounds" />
          </mxGeometry>
        </mxCell>
        <mxCell id="KTwC12vmh-3-CP3L2IJ9-14" value="487" style="shape=partialRectangle;html=1;whiteSpace=wrap;connectable=0;fillColor=none;top=0;left=0;bottom=0;right=0;overflow=hidden;pointerEvents=1;" vertex="1" parent="KTwC12vmh-3-CP3L2IJ9-12">
          <mxGeometry x="60" width="60" height="40" as="geometry">
            <mxRectangle width="60" height="40" as="alternateBounds" />
          </mxGeometry>
        </mxCell>
        <mxCell id="KTwC12vmh-3-CP3L2IJ9-15" value="781" style="shape=partialRectangle;html=1;whiteSpace=wrap;connectable=0;fillColor=none;top=0;left=0;bottom=0;right=0;overflow=hidden;pointerEvents=1;" vertex="1" parent="KTwC12vmh-3-CP3L2IJ9-12">
          <mxGeometry x="120" width="60" height="40" as="geometry">
            <mxRectangle width="60" height="40" as="alternateBounds" />
          </mxGeometry>
        </mxCell>
        <mxCell id="KTwC12vmh-3-CP3L2IJ9-32" value="" style="shape=table;html=1;whiteSpace=wrap;startSize=0;container=1;collapsible=0;childLayout=tableLayout;" vertex="1" parent="1">
          <mxGeometry x="310" width="180" height="40" as="geometry" />
        </mxCell>
        <mxCell id="KTwC12vmh-3-CP3L2IJ9-33" value="" style="shape=partialRectangle;html=1;whiteSpace=wrap;collapsible=0;dropTarget=0;pointerEvents=0;fillColor=none;top=0;left=0;bottom=0;right=0;points=[[0,0.5],[1,0.5]];portConstraint=eastwest;" vertex="1" parent="KTwC12vmh-3-CP3L2IJ9-32">
          <mxGeometry width="180" height="40" as="geometry" />
        </mxCell>
        <mxCell id="KTwC12vmh-3-CP3L2IJ9-34" value="100" style="shape=partialRectangle;html=1;whiteSpace=wrap;connectable=0;fillColor=none;top=0;left=0;bottom=0;right=0;overflow=hidden;pointerEvents=1;" vertex="1" parent="KTwC12vmh-3-CP3L2IJ9-33">
          <mxGeometry width="60" height="40" as="geometry">
            <mxRectangle width="60" height="40" as="alternateBounds" />
          </mxGeometry>
        </mxCell>
        <mxCell id="KTwC12vmh-3-CP3L2IJ9-35" value="101" style="shape=partialRectangle;html=1;whiteSpace=wrap;connectable=0;fillColor=none;top=0;left=0;bottom=0;right=0;overflow=hidden;pointerEvents=1;" vertex="1" parent="KTwC12vmh-3-CP3L2IJ9-33">
          <mxGeometry x="60" width="60" height="40" as="geometry">
            <mxRectangle width="60" height="40" as="alternateBounds" />
          </mxGeometry>
        </mxCell>
        <mxCell id="KTwC12vmh-3-CP3L2IJ9-36" value="0" style="shape=partialRectangle;html=1;whiteSpace=wrap;connectable=0;fillColor=none;top=0;left=0;bottom=0;right=0;overflow=hidden;pointerEvents=1;" vertex="1" parent="KTwC12vmh-3-CP3L2IJ9-33">
          <mxGeometry x="120" width="60" height="40" as="geometry">
            <mxRectangle width="60" height="40" as="alternateBounds" />
          </mxGeometry>
        </mxCell>
        <mxCell id="KTwC12vmh-3-CP3L2IJ9-37" value="" style="shape=table;html=1;whiteSpace=wrap;startSize=0;container=1;collapsible=0;childLayout=tableLayout;" vertex="1" parent="1">
          <mxGeometry x="370" width="180" height="40" as="geometry" />
        </mxCell>
        <mxCell id="KTwC12vmh-3-CP3L2IJ9-38" value="" style="shape=partialRectangle;html=1;whiteSpace=wrap;collapsible=0;dropTarget=0;pointerEvents=0;fillColor=none;top=0;left=0;bottom=0;right=0;points=[[0,0.5],[1,0.5]];portConstraint=eastwest;" vertex="1" parent="KTwC12vmh-3-CP3L2IJ9-37">
          <mxGeometry width="180" height="40" as="geometry" />
        </mxCell>
        <mxCell id="KTwC12vmh-3-CP3L2IJ9-39" value="101" style="shape=partialRectangle;html=1;whiteSpace=wrap;connectable=0;fillColor=none;top=0;left=0;bottom=0;right=0;overflow=hidden;pointerEvents=1;" vertex="1" parent="KTwC12vmh-3-CP3L2IJ9-38">
          <mxGeometry width="60" height="40" as="geometry">
            <mxRectangle width="60" height="40" as="alternateBounds" />
          </mxGeometry>
        </mxCell>
        <mxCell id="KTwC12vmh-3-CP3L2IJ9-40" value="0" style="shape=partialRectangle;html=1;whiteSpace=wrap;connectable=0;fillColor=none;top=0;left=0;bottom=0;right=0;overflow=hidden;pointerEvents=1;" vertex="1" parent="KTwC12vmh-3-CP3L2IJ9-38">
          <mxGeometry x="60" width="60" height="40" as="geometry">
            <mxRectangle width="60" height="40" as="alternateBounds" />
          </mxGeometry>
        </mxCell>
        <mxCell id="KTwC12vmh-3-CP3L2IJ9-41" value="1" style="shape=partialRectangle;html=1;whiteSpace=wrap;connectable=0;fillColor=none;top=0;left=0;bottom=0;right=0;overflow=hidden;pointerEvents=1;" vertex="1" parent="KTwC12vmh-3-CP3L2IJ9-38">
          <mxGeometry x="120" width="60" height="40" as="geometry">
            <mxRectangle width="60" height="40" as="alternateBounds" />
          </mxGeometry>
        </mxCell>
        <mxCell id="KTwC12vmh-3-CP3L2IJ9-42" value="3" style="rounded=0;whiteSpace=wrap;html=1;startSize=0;fillColor=#dae8fc;strokeColor=#6c8ebf;" vertex="1" parent="1">
          <mxGeometry x="40" y="90" width="60" height="30" as="geometry" />
        </mxCell>
        <mxCell id="KTwC12vmh-3-CP3L2IJ9-43" value="4" style="rounded=0;whiteSpace=wrap;html=1;startSize=0;fillColor=#f8cecc;strokeColor=#b85450;" vertex="1" parent="1">
          <mxGeometry x="40" y="120" width="60" height="30" as="geometry" />
        </mxCell>
        <mxCell id="KTwC12vmh-3-CP3L2IJ9-44" value="5" style="rounded=0;whiteSpace=wrap;html=1;startSize=0;fillColor=#d5e8d4;strokeColor=#82b366;" vertex="1" parent="1">
          <mxGeometry x="40" y="150" width="60" height="30" as="geometry" />
        </mxCell>
        <mxCell id="KTwC12vmh-3-CP3L2IJ9-45" value="2" style="rounded=0;whiteSpace=wrap;html=1;startSize=0;fillColor=#fff2cc;strokeColor=#d6b656;" vertex="1" parent="1">
          <mxGeometry x="40" y="180" width="60" height="30" as="geometry" />
        </mxCell>
        <mxCell id="KTwC12vmh-3-CP3L2IJ9-46" value="4" style="rounded=0;whiteSpace=wrap;html=1;startSize=0;fillColor=#f8cecc;strokeColor=#b85450;" vertex="1" parent="1">
          <mxGeometry x="300" y="90" width="60" height="30" as="geometry" />
        </mxCell>
        <mxCell id="KTwC12vmh-3-CP3L2IJ9-47" value="3" style="rounded=0;whiteSpace=wrap;html=1;startSize=0;fillColor=#dae8fc;strokeColor=#6c8ebf;" vertex="1" parent="1">
          <mxGeometry x="300" y="120" width="60" height="30" as="geometry" />
        </mxCell>
        <mxCell id="KTwC12vmh-3-CP3L2IJ9-48" value="5" style="rounded=0;whiteSpace=wrap;html=1;startSize=0;fillColor=#d5e8d4;strokeColor=#82b366;" vertex="1" parent="1">
          <mxGeometry x="300" y="150" width="60" height="30" as="geometry" />
        </mxCell>
        <mxCell id="KTwC12vmh-3-CP3L2IJ9-49" value="2" style="rounded=0;whiteSpace=wrap;html=1;startSize=0;fillColor=#fff2cc;strokeColor=#d6b656;" vertex="1" parent="1">
          <mxGeometry x="300" y="180" width="60" height="30" as="geometry" />
        </mxCell>
        <mxCell id="KTwC12vmh-3-CP3L2IJ9-50" value="a" style="text;html=1;strokeColor=none;fillColor=none;align=center;verticalAlign=middle;whiteSpace=wrap;rounded=0;startSize=0;" vertex="1" parent="1">
          <mxGeometry x="40" y="60" width="60" height="30" as="geometry" />
        </mxCell>
        <mxCell id="KTwC12vmh-3-CP3L2IJ9-51" value="a" style="text;html=1;strokeColor=none;fillColor=none;align=center;verticalAlign=middle;whiteSpace=wrap;rounded=0;startSize=0;" vertex="1" parent="1">
          <mxGeometry x="300" y="60" width="60" height="30" as="geometry" />
        </mxCell>
        <mxCell id="KTwC12vmh-3-CP3L2IJ9-53" value="" style="shape=singleArrow;whiteSpace=wrap;html=1;startSize=0;fillColor=#FF6666;strokeColor=#b85450;" vertex="1" parent="1">
          <mxGeometry x="230" y="130" width="50" height="30" as="geometry" />
        </mxCell>
        <mxCell id="KTwC12vmh-3-CP3L2IJ9-54" value="sb : swap b" style="text;html=1;strokeColor=none;fillColor=none;align=center;verticalAlign=middle;whiteSpace=wrap;rounded=0;" vertex="1" parent="1">
          <mxGeometry x="40" y="230" width="70" height="30" as="geometry" />
        </mxCell>
        <mxCell id="KTwC12vmh-3-CP3L2IJ9-70" value="" style="rounded=0;whiteSpace=wrap;html=1;startSize=0;" vertex="1" parent="1">
          <mxGeometry x="400" y="90" width="60" height="30" as="geometry" />
        </mxCell>
        <mxCell id="KTwC12vmh-3-CP3L2IJ9-71" value="" style="rounded=0;whiteSpace=wrap;html=1;startSize=0;" vertex="1" parent="1">
          <mxGeometry x="400" y="120" width="60" height="30" as="geometry" />
        </mxCell>
        <mxCell id="KTwC12vmh-3-CP3L2IJ9-72" value="" style="rounded=0;whiteSpace=wrap;html=1;startSize=0;" vertex="1" parent="1">
          <mxGeometry x="400" y="150" width="60" height="30" as="geometry" />
        </mxCell>
        <mxCell id="KTwC12vmh-3-CP3L2IJ9-73" value="" style="rounded=0;whiteSpace=wrap;html=1;startSize=0;" vertex="1" parent="1">
          <mxGeometry x="400" y="180" width="60" height="30" as="geometry" />
        </mxCell>
        <mxCell id="KTwC12vmh-3-CP3L2IJ9-74" value="b" style="text;html=1;strokeColor=none;fillColor=none;align=center;verticalAlign=middle;whiteSpace=wrap;rounded=0;startSize=0;" vertex="1" parent="1">
          <mxGeometry x="400" y="60" width="60" height="30" as="geometry" />
        </mxCell>
        <mxCell id="KTwC12vmh-3-CP3L2IJ9-75" value="" style="rounded=0;whiteSpace=wrap;html=1;startSize=0;" vertex="1" parent="1">
          <mxGeometry x="140" y="90" width="60" height="30" as="geometry" />
        </mxCell>
        <mxCell id="KTwC12vmh-3-CP3L2IJ9-76" value="" style="rounded=0;whiteSpace=wrap;html=1;startSize=0;" vertex="1" parent="1">
          <mxGeometry x="140" y="120" width="60" height="30" as="geometry" />
        </mxCell>
        <mxCell id="KTwC12vmh-3-CP3L2IJ9-77" value="" style="rounded=0;whiteSpace=wrap;html=1;startSize=0;" vertex="1" parent="1">
          <mxGeometry x="140" y="150" width="60" height="30" as="geometry" />
        </mxCell>
        <mxCell id="KTwC12vmh-3-CP3L2IJ9-78" value="" style="rounded=0;whiteSpace=wrap;html=1;startSize=0;" vertex="1" parent="1">
          <mxGeometry x="140" y="180" width="60" height="30" as="geometry" />
        </mxCell>
        <mxCell id="KTwC12vmh-3-CP3L2IJ9-79" value="b" style="text;html=1;strokeColor=none;fillColor=none;align=center;verticalAlign=middle;whiteSpace=wrap;rounded=0;startSize=0;" vertex="1" parent="1">
          <mxGeometry x="140" y="60" width="60" height="30" as="geometry" />
        </mxCell>
        <mxCell id="KTwC12vmh-3-CP3L2IJ9-80" value="3" style="rounded=0;whiteSpace=wrap;html=1;startSize=0;fillColor=#dae8fc;strokeColor=#6c8ebf;" vertex="1" parent="1">
          <mxGeometry x="140" y="290" width="60" height="30" as="geometry" />
        </mxCell>
        <mxCell id="KTwC12vmh-3-CP3L2IJ9-81" value="4" style="rounded=0;whiteSpace=wrap;html=1;startSize=0;fillColor=#f8cecc;strokeColor=#b85450;" vertex="1" parent="1">
          <mxGeometry x="140" y="320" width="60" height="30" as="geometry" />
        </mxCell>
        <mxCell id="KTwC12vmh-3-CP3L2IJ9-82" value="5" style="rounded=0;whiteSpace=wrap;html=1;startSize=0;fillColor=#d5e8d4;strokeColor=#82b366;" vertex="1" parent="1">
          <mxGeometry x="140" y="350" width="60" height="30" as="geometry" />
        </mxCell>
        <mxCell id="KTwC12vmh-3-CP3L2IJ9-83" value="2" style="rounded=0;whiteSpace=wrap;html=1;startSize=0;fillColor=#fff2cc;strokeColor=#d6b656;" vertex="1" parent="1">
          <mxGeometry x="140" y="380" width="60" height="30" as="geometry" />
        </mxCell>
        <mxCell id="KTwC12vmh-3-CP3L2IJ9-84" value="4" style="rounded=0;whiteSpace=wrap;html=1;startSize=0;fillColor=#f8cecc;strokeColor=#b85450;" vertex="1" parent="1">
          <mxGeometry x="400" y="290" width="60" height="30" as="geometry" />
        </mxCell>
        <mxCell id="KTwC12vmh-3-CP3L2IJ9-85" value="3" style="rounded=0;whiteSpace=wrap;html=1;startSize=0;fillColor=#dae8fc;strokeColor=#6c8ebf;" vertex="1" parent="1">
          <mxGeometry x="400" y="320" width="60" height="30" as="geometry" />
        </mxCell>
        <mxCell id="KTwC12vmh-3-CP3L2IJ9-86" value="5" style="rounded=0;whiteSpace=wrap;html=1;startSize=0;fillColor=#d5e8d4;strokeColor=#82b366;" vertex="1" parent="1">
          <mxGeometry x="400" y="350" width="60" height="30" as="geometry" />
        </mxCell>
        <mxCell id="KTwC12vmh-3-CP3L2IJ9-87" value="2" style="rounded=0;whiteSpace=wrap;html=1;startSize=0;fillColor=#fff2cc;strokeColor=#d6b656;" vertex="1" parent="1">
          <mxGeometry x="400" y="380" width="60" height="30" as="geometry" />
        </mxCell>
        <mxCell id="KTwC12vmh-3-CP3L2IJ9-88" value="a" style="text;html=1;strokeColor=none;fillColor=none;align=center;verticalAlign=middle;whiteSpace=wrap;rounded=0;startSize=0;" vertex="1" parent="1">
          <mxGeometry x="40" y="260" width="60" height="30" as="geometry" />
        </mxCell>
        <mxCell id="KTwC12vmh-3-CP3L2IJ9-89" value="a" style="text;html=1;strokeColor=none;fillColor=none;align=center;verticalAlign=middle;whiteSpace=wrap;rounded=0;startSize=0;" vertex="1" parent="1">
          <mxGeometry x="300" y="260" width="60" height="30" as="geometry" />
        </mxCell>
        <mxCell id="KTwC12vmh-3-CP3L2IJ9-90" value="" style="shape=singleArrow;whiteSpace=wrap;html=1;startSize=0;fillColor=#FF6666;strokeColor=#b85450;" vertex="1" parent="1">
          <mxGeometry x="230" y="330" width="50" height="30" as="geometry" />
        </mxCell>
        <mxCell id="KTwC12vmh-3-CP3L2IJ9-92" value="" style="rounded=0;whiteSpace=wrap;html=1;startSize=0;" vertex="1" parent="1">
          <mxGeometry x="300" y="290" width="60" height="30" as="geometry" />
        </mxCell>
        <mxCell id="KTwC12vmh-3-CP3L2IJ9-93" value="" style="rounded=0;whiteSpace=wrap;html=1;startSize=0;" vertex="1" parent="1">
          <mxGeometry x="300" y="320" width="60" height="30" as="geometry" />
        </mxCell>
        <mxCell id="KTwC12vmh-3-CP3L2IJ9-94" value="" style="rounded=0;whiteSpace=wrap;html=1;startSize=0;" vertex="1" parent="1">
          <mxGeometry x="300" y="350" width="60" height="30" as="geometry" />
        </mxCell>
        <mxCell id="KTwC12vmh-3-CP3L2IJ9-95" value="" style="rounded=0;whiteSpace=wrap;html=1;startSize=0;" vertex="1" parent="1">
          <mxGeometry x="300" y="380" width="60" height="30" as="geometry" />
        </mxCell>
        <mxCell id="KTwC12vmh-3-CP3L2IJ9-96" value="b" style="text;html=1;strokeColor=none;fillColor=none;align=center;verticalAlign=middle;whiteSpace=wrap;rounded=0;startSize=0;" vertex="1" parent="1">
          <mxGeometry x="400" y="260" width="60" height="30" as="geometry" />
        </mxCell>
        <mxCell id="KTwC12vmh-3-CP3L2IJ9-97" value="" style="rounded=0;whiteSpace=wrap;html=1;startSize=0;" vertex="1" parent="1">
          <mxGeometry x="40" y="290" width="60" height="30" as="geometry" />
        </mxCell>
        <mxCell id="KTwC12vmh-3-CP3L2IJ9-98" value="" style="rounded=0;whiteSpace=wrap;html=1;startSize=0;" vertex="1" parent="1">
          <mxGeometry x="40" y="320" width="60" height="30" as="geometry" />
        </mxCell>
        <mxCell id="KTwC12vmh-3-CP3L2IJ9-99" value="" style="rounded=0;whiteSpace=wrap;html=1;startSize=0;" vertex="1" parent="1">
          <mxGeometry x="40" y="350" width="60" height="30" as="geometry" />
        </mxCell>
        <mxCell id="KTwC12vmh-3-CP3L2IJ9-100" value="" style="rounded=0;whiteSpace=wrap;html=1;startSize=0;" vertex="1" parent="1">
          <mxGeometry x="40" y="380" width="60" height="30" as="geometry" />
        </mxCell>
        <mxCell id="KTwC12vmh-3-CP3L2IJ9-101" value="b" style="text;html=1;strokeColor=none;fillColor=none;align=center;verticalAlign=middle;whiteSpace=wrap;rounded=0;startSize=0;" vertex="1" parent="1">
          <mxGeometry x="140" y="260" width="60" height="30" as="geometry" />
        </mxCell>
        <mxCell id="KTwC12vmh-3-CP3L2IJ9-102" value="ss&amp;nbsp;" style="text;html=1;strokeColor=none;fillColor=none;align=center;verticalAlign=middle;whiteSpace=wrap;rounded=0;" vertex="1" parent="1">
          <mxGeometry x="35" y="430" width="70" height="30" as="geometry" />
        </mxCell>
        <mxCell id="KTwC12vmh-3-CP3L2IJ9-103" value="3" style="rounded=0;whiteSpace=wrap;html=1;startSize=0;fillColor=#dae8fc;strokeColor=#6c8ebf;" vertex="1" parent="1">
          <mxGeometry x="40" y="500" width="60" height="30" as="geometry" />
        </mxCell>
        <mxCell id="KTwC12vmh-3-CP3L2IJ9-104" value="4" style="rounded=0;whiteSpace=wrap;html=1;startSize=0;fillColor=#f8cecc;strokeColor=#b85450;" vertex="1" parent="1">
          <mxGeometry x="40" y="530" width="60" height="30" as="geometry" />
        </mxCell>
        <mxCell id="KTwC12vmh-3-CP3L2IJ9-105" value="5" style="rounded=0;whiteSpace=wrap;html=1;startSize=0;fillColor=#d5e8d4;strokeColor=#82b366;" vertex="1" parent="1">
          <mxGeometry x="140" y="500" width="60" height="30" as="geometry" />
        </mxCell>
        <mxCell id="KTwC12vmh-3-CP3L2IJ9-106" value="2" style="rounded=0;whiteSpace=wrap;html=1;startSize=0;fillColor=#fff2cc;strokeColor=#d6b656;" vertex="1" parent="1">
          <mxGeometry x="140" y="530" width="60" height="30" as="geometry" />
        </mxCell>
        <mxCell id="KTwC12vmh-3-CP3L2IJ9-111" value="a" style="text;html=1;strokeColor=none;fillColor=none;align=center;verticalAlign=middle;whiteSpace=wrap;rounded=0;startSize=0;" vertex="1" parent="1">
          <mxGeometry x="40" y="470" width="60" height="30" as="geometry" />
        </mxCell>
        <mxCell id="KTwC12vmh-3-CP3L2IJ9-112" value="a" style="text;html=1;strokeColor=none;fillColor=none;align=center;verticalAlign=middle;whiteSpace=wrap;rounded=0;startSize=0;" vertex="1" parent="1">
          <mxGeometry x="300" y="470" width="60" height="30" as="geometry" />
        </mxCell>
        <mxCell id="KTwC12vmh-3-CP3L2IJ9-113" value="" style="shape=singleArrow;whiteSpace=wrap;html=1;startSize=0;fillColor=#FF6666;strokeColor=#b85450;" vertex="1" parent="1">
          <mxGeometry x="230" y="540" width="50" height="30" as="geometry" />
        </mxCell>
        <mxCell id="KTwC12vmh-3-CP3L2IJ9-118" value="b" style="text;html=1;strokeColor=none;fillColor=none;align=center;verticalAlign=middle;whiteSpace=wrap;rounded=0;startSize=0;" vertex="1" parent="1">
          <mxGeometry x="400" y="470" width="60" height="30" as="geometry" />
        </mxCell>
        <mxCell id="KTwC12vmh-3-CP3L2IJ9-119" value="" style="rounded=0;whiteSpace=wrap;html=1;startSize=0;" vertex="1" parent="1">
          <mxGeometry x="140" y="560" width="60" height="30" as="geometry" />
        </mxCell>
        <mxCell id="KTwC12vmh-3-CP3L2IJ9-120" value="" style="rounded=0;whiteSpace=wrap;html=1;startSize=0;" vertex="1" parent="1">
          <mxGeometry x="140" y="590" width="60" height="30" as="geometry" />
        </mxCell>
        <mxCell id="KTwC12vmh-3-CP3L2IJ9-121" value="" style="rounded=0;whiteSpace=wrap;html=1;startSize=0;" vertex="1" parent="1">
          <mxGeometry x="40" y="560" width="60" height="30" as="geometry" />
        </mxCell>
        <mxCell id="KTwC12vmh-3-CP3L2IJ9-122" value="" style="rounded=0;whiteSpace=wrap;html=1;startSize=0;" vertex="1" parent="1">
          <mxGeometry x="40" y="590" width="60" height="30" as="geometry" />
        </mxCell>
        <mxCell id="KTwC12vmh-3-CP3L2IJ9-123" value="b" style="text;html=1;strokeColor=none;fillColor=none;align=center;verticalAlign=middle;whiteSpace=wrap;rounded=0;startSize=0;" vertex="1" parent="1">
          <mxGeometry x="140" y="470" width="60" height="30" as="geometry" />
        </mxCell>
        <mxCell id="KTwC12vmh-3-CP3L2IJ9-125" value="3" style="rounded=0;whiteSpace=wrap;html=1;startSize=0;fillColor=#dae8fc;strokeColor=#6c8ebf;" vertex="1" parent="1">
          <mxGeometry x="300" y="530" width="60" height="30" as="geometry" />
        </mxCell>
        <mxCell id="KTwC12vmh-3-CP3L2IJ9-126" value="4" style="rounded=0;whiteSpace=wrap;html=1;startSize=0;fillColor=#f8cecc;strokeColor=#b85450;" vertex="1" parent="1">
          <mxGeometry x="300" y="500" width="60" height="30" as="geometry" />
        </mxCell>
        <mxCell id="KTwC12vmh-3-CP3L2IJ9-127" value="5" style="rounded=0;whiteSpace=wrap;html=1;startSize=0;fillColor=#d5e8d4;strokeColor=#82b366;" vertex="1" parent="1">
          <mxGeometry x="400" y="530" width="60" height="30" as="geometry" />
        </mxCell>
        <mxCell id="KTwC12vmh-3-CP3L2IJ9-128" value="2" style="rounded=0;whiteSpace=wrap;html=1;startSize=0;fillColor=#fff2cc;strokeColor=#d6b656;" vertex="1" parent="1">
          <mxGeometry x="400" y="500" width="60" height="30" as="geometry" />
        </mxCell>
        <mxCell id="KTwC12vmh-3-CP3L2IJ9-129" value="" style="rounded=0;whiteSpace=wrap;html=1;startSize=0;" vertex="1" parent="1">
          <mxGeometry x="400" y="560" width="60" height="30" as="geometry" />
        </mxCell>
        <mxCell id="KTwC12vmh-3-CP3L2IJ9-130" value="" style="rounded=0;whiteSpace=wrap;html=1;startSize=0;" vertex="1" parent="1">
          <mxGeometry x="400" y="590" width="60" height="30" as="geometry" />
        </mxCell>
        <mxCell id="KTwC12vmh-3-CP3L2IJ9-131" value="" style="rounded=0;whiteSpace=wrap;html=1;startSize=0;" vertex="1" parent="1">
          <mxGeometry x="300" y="560" width="60" height="30" as="geometry" />
        </mxCell>
        <mxCell id="KTwC12vmh-3-CP3L2IJ9-132" value="" style="rounded=0;whiteSpace=wrap;html=1;startSize=0;" vertex="1" parent="1">
          <mxGeometry x="300" y="590" width="60" height="30" as="geometry" />
        </mxCell>
        <mxCell id="KTwC12vmh-3-CP3L2IJ9-133" value="pa : push a" style="text;html=1;strokeColor=none;fillColor=none;align=center;verticalAlign=middle;whiteSpace=wrap;rounded=0;" vertex="1" parent="1">
          <mxGeometry x="40" y="640" width="70" height="30" as="geometry" />
        </mxCell>
        <mxCell id="KTwC12vmh-3-CP3L2IJ9-134" value="3" style="rounded=0;whiteSpace=wrap;html=1;startSize=0;fillColor=#dae8fc;strokeColor=#6c8ebf;" vertex="1" parent="1">
          <mxGeometry x="140" y="690" width="60" height="30" as="geometry" />
        </mxCell>
        <mxCell id="KTwC12vmh-3-CP3L2IJ9-135" value="4" style="rounded=0;whiteSpace=wrap;html=1;startSize=0;fillColor=#f8cecc;strokeColor=#b85450;" vertex="1" parent="1">
          <mxGeometry x="40" y="690" width="60" height="30" as="geometry" />
        </mxCell>
        <mxCell id="KTwC12vmh-3-CP3L2IJ9-136" value="5" style="rounded=0;whiteSpace=wrap;html=1;startSize=0;fillColor=#d5e8d4;strokeColor=#82b366;" vertex="1" parent="1">
          <mxGeometry x="40" y="720" width="60" height="30" as="geometry" />
        </mxCell>
        <mxCell id="KTwC12vmh-3-CP3L2IJ9-137" value="2" style="rounded=0;whiteSpace=wrap;html=1;startSize=0;fillColor=#fff2cc;strokeColor=#d6b656;" vertex="1" parent="1">
          <mxGeometry x="40" y="750" width="60" height="30" as="geometry" />
        </mxCell>
        <mxCell id="KTwC12vmh-3-CP3L2IJ9-142" value="a" style="text;html=1;strokeColor=none;fillColor=none;align=center;verticalAlign=middle;whiteSpace=wrap;rounded=0;startSize=0;" vertex="1" parent="1">
          <mxGeometry x="40" y="660" width="60" height="30" as="geometry" />
        </mxCell>
        <mxCell id="KTwC12vmh-3-CP3L2IJ9-143" value="a" style="text;html=1;strokeColor=none;fillColor=none;align=center;verticalAlign=middle;whiteSpace=wrap;rounded=0;startSize=0;" vertex="1" parent="1">
          <mxGeometry x="300" y="660" width="60" height="30" as="geometry" />
        </mxCell>
        <mxCell id="KTwC12vmh-3-CP3L2IJ9-144" value="" style="shape=singleArrow;whiteSpace=wrap;html=1;startSize=0;fillColor=#FF6666;strokeColor=#b85450;" vertex="1" parent="1">
          <mxGeometry x="230" y="730" width="50" height="30" as="geometry" />
        </mxCell>
        <mxCell id="KTwC12vmh-3-CP3L2IJ9-149" value="b" style="text;html=1;strokeColor=none;fillColor=none;align=center;verticalAlign=middle;whiteSpace=wrap;rounded=0;startSize=0;" vertex="1" parent="1">
          <mxGeometry x="400" y="660" width="60" height="30" as="geometry" />
        </mxCell>
        <mxCell id="KTwC12vmh-3-CP3L2IJ9-150" value="" style="rounded=0;whiteSpace=wrap;html=1;startSize=0;" vertex="1" parent="1">
          <mxGeometry x="140" y="720" width="60" height="30" as="geometry" />
        </mxCell>
        <mxCell id="KTwC12vmh-3-CP3L2IJ9-151" value="" style="rounded=0;whiteSpace=wrap;html=1;startSize=0;" vertex="1" parent="1">
          <mxGeometry x="140" y="750" width="60" height="30" as="geometry" />
        </mxCell>
        <mxCell id="KTwC12vmh-3-CP3L2IJ9-152" value="" style="rounded=0;whiteSpace=wrap;html=1;startSize=0;" vertex="1" parent="1">
          <mxGeometry x="140" y="780" width="60" height="30" as="geometry" />
        </mxCell>
        <mxCell id="KTwC12vmh-3-CP3L2IJ9-153" value="" style="rounded=0;whiteSpace=wrap;html=1;startSize=0;" vertex="1" parent="1">
          <mxGeometry x="40" y="780" width="60" height="30" as="geometry" />
        </mxCell>
        <mxCell id="KTwC12vmh-3-CP3L2IJ9-154" value="b" style="text;html=1;strokeColor=none;fillColor=none;align=center;verticalAlign=middle;whiteSpace=wrap;rounded=0;startSize=0;" vertex="1" parent="1">
          <mxGeometry x="140" y="660" width="60" height="30" as="geometry" />
        </mxCell>
        <mxCell id="KTwC12vmh-3-CP3L2IJ9-199" value="3" style="rounded=0;whiteSpace=wrap;html=1;startSize=0;fillColor=#dae8fc;strokeColor=#6c8ebf;" vertex="1" parent="1">
          <mxGeometry x="300" y="690" width="60" height="30" as="geometry" />
        </mxCell>
        <mxCell id="KTwC12vmh-3-CP3L2IJ9-200" value="4" style="rounded=0;whiteSpace=wrap;html=1;startSize=0;fillColor=#f8cecc;strokeColor=#b85450;" vertex="1" parent="1">
          <mxGeometry x="300" y="720" width="60" height="30" as="geometry" />
        </mxCell>
        <mxCell id="KTwC12vmh-3-CP3L2IJ9-201" value="5" style="rounded=0;whiteSpace=wrap;html=1;startSize=0;fillColor=#d5e8d4;strokeColor=#82b366;" vertex="1" parent="1">
          <mxGeometry x="300" y="750" width="60" height="30" as="geometry" />
        </mxCell>
        <mxCell id="KTwC12vmh-3-CP3L2IJ9-202" value="2" style="rounded=0;whiteSpace=wrap;html=1;startSize=0;fillColor=#fff2cc;strokeColor=#d6b656;" vertex="1" parent="1">
          <mxGeometry x="300" y="780" width="60" height="30" as="geometry" />
        </mxCell>
        <mxCell id="KTwC12vmh-3-CP3L2IJ9-203" value="" style="rounded=0;whiteSpace=wrap;html=1;startSize=0;" vertex="1" parent="1">
          <mxGeometry x="400" y="720" width="60" height="30" as="geometry" />
        </mxCell>
        <mxCell id="KTwC12vmh-3-CP3L2IJ9-204" value="" style="rounded=0;whiteSpace=wrap;html=1;startSize=0;" vertex="1" parent="1">
          <mxGeometry x="400" y="750" width="60" height="30" as="geometry" />
        </mxCell>
        <mxCell id="KTwC12vmh-3-CP3L2IJ9-205" value="" style="rounded=0;whiteSpace=wrap;html=1;startSize=0;" vertex="1" parent="1">
          <mxGeometry x="400" y="780" width="60" height="30" as="geometry" />
        </mxCell>
        <mxCell id="KTwC12vmh-3-CP3L2IJ9-206" value="" style="rounded=0;whiteSpace=wrap;html=1;startSize=0;" vertex="1" parent="1">
          <mxGeometry x="400" y="690" width="60" height="30" as="geometry" />
        </mxCell>
        <mxCell id="KTwC12vmh-3-CP3L2IJ9-207" value="pb : push b" style="text;html=1;strokeColor=none;fillColor=none;align=center;verticalAlign=middle;whiteSpace=wrap;rounded=0;" vertex="1" parent="1">
          <mxGeometry x="40" y="830" width="70" height="30" as="geometry" />
        </mxCell>
        <mxCell id="KTwC12vmh-3-CP3L2IJ9-208" value="3" style="rounded=0;whiteSpace=wrap;html=1;startSize=0;fillColor=#dae8fc;strokeColor=#6c8ebf;" vertex="1" parent="1">
          <mxGeometry x="40" y="880" width="60" height="30" as="geometry" />
        </mxCell>
        <mxCell id="KTwC12vmh-3-CP3L2IJ9-209" value="4" style="rounded=0;whiteSpace=wrap;html=1;startSize=0;fillColor=#f8cecc;strokeColor=#b85450;" vertex="1" parent="1">
          <mxGeometry x="140" y="880" width="60" height="30" as="geometry" />
        </mxCell>
        <mxCell id="KTwC12vmh-3-CP3L2IJ9-210" value="5" style="rounded=0;whiteSpace=wrap;html=1;startSize=0;fillColor=#d5e8d4;strokeColor=#82b366;" vertex="1" parent="1">
          <mxGeometry x="140" y="910" width="60" height="30" as="geometry" />
        </mxCell>
        <mxCell id="KTwC12vmh-3-CP3L2IJ9-211" value="2" style="rounded=0;whiteSpace=wrap;html=1;startSize=0;fillColor=#fff2cc;strokeColor=#d6b656;" vertex="1" parent="1">
          <mxGeometry x="140" y="940" width="60" height="30" as="geometry" />
        </mxCell>
        <mxCell id="KTwC12vmh-3-CP3L2IJ9-212" value="a" style="text;html=1;strokeColor=none;fillColor=none;align=center;verticalAlign=middle;whiteSpace=wrap;rounded=0;startSize=0;" vertex="1" parent="1">
          <mxGeometry x="40" y="850" width="60" height="30" as="geometry" />
        </mxCell>
        <mxCell id="KTwC12vmh-3-CP3L2IJ9-213" value="a" style="text;html=1;strokeColor=none;fillColor=none;align=center;verticalAlign=middle;whiteSpace=wrap;rounded=0;startSize=0;" vertex="1" parent="1">
          <mxGeometry x="300" y="850" width="60" height="30" as="geometry" />
        </mxCell>
        <mxCell id="KTwC12vmh-3-CP3L2IJ9-214" value="" style="shape=singleArrow;whiteSpace=wrap;html=1;startSize=0;fillColor=#FF6666;strokeColor=#b85450;" vertex="1" parent="1">
          <mxGeometry x="230" y="920" width="50" height="30" as="geometry" />
        </mxCell>
        <mxCell id="KTwC12vmh-3-CP3L2IJ9-215" value="b" style="text;html=1;strokeColor=none;fillColor=none;align=center;verticalAlign=middle;whiteSpace=wrap;rounded=0;startSize=0;" vertex="1" parent="1">
          <mxGeometry x="400" y="850" width="60" height="30" as="geometry" />
        </mxCell>
        <mxCell id="KTwC12vmh-3-CP3L2IJ9-216" value="" style="rounded=0;whiteSpace=wrap;html=1;startSize=0;" vertex="1" parent="1">
          <mxGeometry x="40" y="910" width="60" height="30" as="geometry" />
        </mxCell>
        <mxCell id="KTwC12vmh-3-CP3L2IJ9-217" value="" style="rounded=0;whiteSpace=wrap;html=1;startSize=0;" vertex="1" parent="1">
          <mxGeometry x="40" y="940" width="60" height="30" as="geometry" />
        </mxCell>
        <mxCell id="KTwC12vmh-3-CP3L2IJ9-218" value="" style="rounded=0;whiteSpace=wrap;html=1;startSize=0;" vertex="1" parent="1">
          <mxGeometry x="40" y="970" width="60" height="30" as="geometry" />
        </mxCell>
        <mxCell id="KTwC12vmh-3-CP3L2IJ9-219" value="" style="rounded=0;whiteSpace=wrap;html=1;startSize=0;" vertex="1" parent="1">
          <mxGeometry x="140" y="970" width="60" height="30" as="geometry" />
        </mxCell>
        <mxCell id="KTwC12vmh-3-CP3L2IJ9-220" value="b" style="text;html=1;strokeColor=none;fillColor=none;align=center;verticalAlign=middle;whiteSpace=wrap;rounded=0;startSize=0;" vertex="1" parent="1">
          <mxGeometry x="140" y="850" width="60" height="30" as="geometry" />
        </mxCell>
        <mxCell id="KTwC12vmh-3-CP3L2IJ9-221" value="3" style="rounded=0;whiteSpace=wrap;html=1;startSize=0;fillColor=#dae8fc;strokeColor=#6c8ebf;" vertex="1" parent="1">
          <mxGeometry x="400" y="880" width="60" height="30" as="geometry" />
        </mxCell>
        <mxCell id="KTwC12vmh-3-CP3L2IJ9-222" value="4" style="rounded=0;whiteSpace=wrap;html=1;startSize=0;fillColor=#f8cecc;strokeColor=#b85450;" vertex="1" parent="1">
          <mxGeometry x="400" y="910" width="60" height="30" as="geometry" />
        </mxCell>
        <mxCell id="KTwC12vmh-3-CP3L2IJ9-223" value="5" style="rounded=0;whiteSpace=wrap;html=1;startSize=0;fillColor=#d5e8d4;strokeColor=#82b366;" vertex="1" parent="1">
          <mxGeometry x="400" y="940" width="60" height="30" as="geometry" />
        </mxCell>
        <mxCell id="KTwC12vmh-3-CP3L2IJ9-224" value="2" style="rounded=0;whiteSpace=wrap;html=1;startSize=0;fillColor=#fff2cc;strokeColor=#d6b656;" vertex="1" parent="1">
          <mxGeometry x="400" y="970" width="60" height="30" as="geometry" />
        </mxCell>
        <mxCell id="KTwC12vmh-3-CP3L2IJ9-225" value="" style="rounded=0;whiteSpace=wrap;html=1;startSize=0;" vertex="1" parent="1">
          <mxGeometry x="300" y="910" width="60" height="30" as="geometry" />
        </mxCell>
        <mxCell id="KTwC12vmh-3-CP3L2IJ9-226" value="" style="rounded=0;whiteSpace=wrap;html=1;startSize=0;" vertex="1" parent="1">
          <mxGeometry x="300" y="940" width="60" height="30" as="geometry" />
        </mxCell>
        <mxCell id="KTwC12vmh-3-CP3L2IJ9-227" value="" style="rounded=0;whiteSpace=wrap;html=1;startSize=0;" vertex="1" parent="1">
          <mxGeometry x="300" y="970" width="60" height="30" as="geometry" />
        </mxCell>
        <mxCell id="KTwC12vmh-3-CP3L2IJ9-228" value="" style="rounded=0;whiteSpace=wrap;html=1;startSize=0;" vertex="1" parent="1">
          <mxGeometry x="300" y="880" width="60" height="30" as="geometry" />
        </mxCell>
      </root>
    </mxGraphModel>
  </diagram>
</mxfile>
